ModelForces
version=1
nRows=4
nColumns=157
inDegrees=no

This file contains the forces exerted on a model during a simulation.

A force is a generalized force, meaning that it can be either a force (N) or a torque (Nm).

Units are S.I. units (second, meters, Newtons, ...)
Angles are in degrees.

endheader
time	glut_med1_r	glut_med2_r	glut_med3_r	glut_min1_r	glut_min2_r	glut_min3_r	semimem_r	semiten_r	bifemlh_r	bifemsh_r	sar_r	add_long_r	add_brev_r	add_mag1_r	add_mag2_r	add_mag3_r	tfl_r	pect_r	grac_r	glut_max1_r	glut_max2_r	glut_max3_r	iliacus_r	psoas_r	quad_fem_r	gem_r	peri_r	rect_fem_r	vas_med_r	vas_int_r	vas_lat_r	med_gas_r	lat_gas_r	soleus_r	tib_post_r	flex_dig_r	flex_hal_r	tib_ant_r	per_brev_r	per_long_r	per_tert_r	ext_dig_r	ext_hal_r	glut_med1_l	glut_med2_l	glut_med3_l	glut_min1_l	glut_min2_l	glut_min3_l	semimem_l	semiten_l	bifemlh_l	bifemsh_l	sar_l	add_long_l	add_brev_l	add_mag1_l	add_mag2_l	add_mag3_l	tfl_l	pect_l	grac_l	glut_max1_l	glut_max2_l	glut_max3_l	iliacus_l	psoas_l	quad_fem_l	gem_l	peri_l	rect_fem_l	vas_med_l	vas_int_l	vas_lat_l	med_gas_l	lat_gas_l	soleus_l	tib_post_l	flex_dig_l	flex_hal_l	tib_ant_l	per_brev_l	per_long_l	per_tert_l	ext_dig_l	ext_hal_l	ercspn_r	ercspn_l	intobl_r	intobl_l	extobl_r	extobl_l	femur_lat_meniscii_r.femur_lat_r.force.X	femur_lat_meniscii_r.femur_lat_r.force.Y	femur_lat_meniscii_r.femur_lat_r.force.Z	femur_lat_meniscii_r.femur_lat_r.torque.X	femur_lat_meniscii_r.femur_lat_r.torque.Y	femur_lat_meniscii_r.femur_lat_r.torque.Z	femur_lat_meniscii_r.meniscus_lat_r.force.X	femur_lat_meniscii_r.meniscus_lat_r.force.Y	femur_lat_meniscii_r.meniscus_lat_r.force.Z	femur_lat_meniscii_r.meniscus_lat_r.torque.X	femur_lat_meniscii_r.meniscus_lat_r.torque.Y	femur_lat_meniscii_r.meniscus_lat_r.torque.Z	femur_med_meniscii_r.femur_med_r.force.X	femur_med_meniscii_r.femur_med_r.force.Y	femur_med_meniscii_r.femur_med_r.force.Z	femur_med_meniscii_r.femur_med_r.torque.X	femur_med_meniscii_r.femur_med_r.torque.Y	femur_med_meniscii_r.femur_med_r.torque.Z	femur_med_meniscii_r.meniscus_med_r.force.X	femur_med_meniscii_r.meniscus_med_r.force.Y	femur_med_meniscii_r.meniscus_med_r.force.Z	femur_med_meniscii_r.meniscus_med_r.torque.X	femur_med_meniscii_r.meniscus_med_r.torque.Y	femur_med_meniscii_r.meniscus_med_r.torque.Z	femur_med_tibia_r.tibia_upper_r.force.X	femur_med_tibia_r.tibia_upper_r.force.Y	femur_med_tibia_r.tibia_upper_r.force.Z	femur_med_tibia_r.tibia_upper_r.torque.X	femur_med_tibia_r.tibia_upper_r.torque.Y	femur_med_tibia_r.tibia_upper_r.torque.Z	femur_med_tibia_r.femur_med_r.force.X	femur_med_tibia_r.femur_med_r.force.Y	femur_med_tibia_r.femur_med_r.force.Z	femur_med_tibia_r.femur_med_r.torque.X	femur_med_tibia_r.femur_med_r.torque.Y	femur_med_tibia_r.femur_med_r.torque.Z	femur_lat_tibia_r.tibia_upper_r.force.X	femur_lat_tibia_r.tibia_upper_r.force.Y	femur_lat_tibia_r.tibia_upper_r.force.Z	femur_lat_tibia_r.tibia_upper_r.torque.X	femur_lat_tibia_r.tibia_upper_r.torque.Y	femur_lat_tibia_r.tibia_upper_r.torque.Z	femur_lat_tibia_r.femur_lat_r.force.X	femur_lat_tibia_r.femur_lat_r.force.Y	femur_lat_tibia_r.femur_lat_r.force.Z	femur_lat_tibia_r.femur_lat_r.torque.X	femur_lat_tibia_r.femur_lat_r.torque.Y	femur_lat_tibia_r.femur_lat_r.torque.Z	aACL_R	pACL_R	aPCL_R	pPCL_R	aMCL_R	mMCL_R	pMCL_R	aLCL_R	mLCL_R	pLCL_R	ground_prescribedForce_fx	ground_prescribedForce_fy	ground_prescribedForce_fz	ground_prescribedForce_px	ground_prescribedForce_py	ground_prescribedForce_pz
      0.12158648	     12.86775009	     10.40491342	     11.21796250	      4.76232384	      5.47662960	      6.09010042	    100.31047949	    159.92341040	    157.78433579	    305.85228818	    126.78888188	     10.38112364	      7.37706888	      0.00000000	      4.53430612	      7.78308847	      5.75348769	      4.01621174	     98.30668885	      6.72552902	     10.23649937	      7.71685532	     31.36300938	     22.88082619	      6.57365055	      4.28637143	      5.70560224	     36.33252841	      0.00000000	      0.00000000	      0.00000000	     42.10273102	      0.80086792	      0.00000000	      0.00000000	      0.00000000	      0.00000000	     28.24216289	      3.79517756	      5.36164516	     13.07676564	     19.32540020	      5.28585151	     12.86775009	     10.40491342	     11.21796250	      4.76232384	      5.47662960	      6.09010042	      0.00000000	      7.80940820	     14.55976203	     13.09704485	      2.71460813	     10.38112364	      7.37706888	      0.00000000	      4.53430612	      7.78308847	      6.43089195	      4.01621174	      2.81260098	      6.72552902	     10.23649937	      7.71685532	     31.36300938	     22.88082619	      6.57365055	      4.28637143	      5.70560224	     21.61978312	      0.00000000	      0.00000000	      0.00000000	     19.62721254	      9.65337553	     57.73647425	     56.15948990	      6.77441592	      6.10578133	     16.16957975	      8.86989310	     21.08522997	      3.53433675	     11.90069629	      3.87898509	     44.84712929	     44.84712929	     16.93478469	     16.93478469	     33.99318847	     33.99318847	     83.45312947	    126.29773677	     25.10307767	    -13.44817607	      2.15213636	     33.73589342	    -83.45312947	   -126.29773677	    -25.10307767	      4.20663772	     -2.66029194	     -0.45653987	      3.45727939	     38.45602201	     10.87782694	     -3.62691343	     -0.15973564	      1.66323512	     -3.45727939	    -38.45602201	    -10.87782694	     -0.42137938	      0.02735049	      0.09144306	   -356.58873229	   -669.35806624	    174.48130706	    -16.00337055	      6.79946323	     -6.68285499	    356.58873229	    669.35806624	   -174.48130706	     84.39173161	     -5.78231513	    150.35071074	    -83.82602396	   -137.12096094	    -44.20916602	      5.05219679	     -2.72922024	     -1.11280252	     83.82602396	    137.12096094	     44.20916602	    -21.55655435	      2.00384314	     34.65695661	     -7.32733243	      0.00000000	    252.53161823	    202.97294377	      0.00000000	      0.00000000	      0.00000000	      0.00000000	      0.00000000	      0.00000000	      0.00000000	      0.00000000	      0.00000000	      0.00000000	      0.00000000	      0.00000000
      0.12200000	     12.88978986	     10.37881105	     11.18959267	      4.75082669	      5.46397805	      6.07527497	     99.89166824	    159.80928091	    157.27132154	    305.46406641	    126.78681878	     10.35478996	      7.35942144	      0.00000000	      4.52380841	      7.76239536	      5.73927100	      4.00762200	     98.26284921	      6.70858029	     10.21060884	      7.69708579	     31.31438025	     22.82540259	      6.55786489	      4.27834556	      5.73378534	     36.25946491	      0.00000000	      0.00000000	      0.00000000	     38.99647751	      0.90623625	      0.00000000	      0.00000000	      0.00000000	      0.00000000	     28.19151630	      3.67534794	      5.20205639	     12.66075051	     19.42757016	      5.31012447	     12.88978986	     10.37881105	     11.18959267	      4.75082669	      5.46397805	      6.07527497	      0.00000000	      7.78878450	     14.54283331	     13.06472346	      2.70808447	     10.35478996	      7.35942144	      0.00000000	      4.52380841	      7.76239536	      6.41844670	      4.00762200	      2.80572709	      6.70858029	     10.21060884	      7.69708579	     31.31438025	     22.82540259	      6.55786489	      4.27834556	      5.73378534	     21.56456638	      0.00000000	      0.00000000	      0.00000000	     19.69385304	      9.67673647	     57.70460704	     56.10742632	      6.74865306	      6.07933252	     16.14357411	      8.85068327	     21.05977932	      3.52582980	     11.88008196	      3.86777340	     44.73862853	     44.73862853	     16.89088843	     16.89088843	     33.95294533	     33.95294533	     83.31733864	    125.49362357	     26.53690149	    -14.03185734	      2.15097805	     33.67142348	    -83.31733864	   -125.49362357	    -26.53690149	      4.23963781	     -2.67687078	     -0.44004355	      4.80069241	     38.77646222	     10.41285790	     -3.41828241	     -0.18747378	      2.22906882	     -4.80069241	    -38.77646222	    -10.41285790	     -0.45212800	      0.05580564	      0.04564526	   -360.66322590	   -667.72340469	    176.20507535	    -16.02594476	      6.90111641	     -6.70730869	    360.66322590	    667.72340469	   -176.20507535	     85.06555696	     -5.85632757	    151.97939670	    -83.83588868	   -136.12036607	    -43.77707557	      5.00607593	     -2.72773338	     -1.10512875	     83.83588868	    136.12036607	     43.77707557	    -21.34984319	      2.00373753	     34.65567576	     -7.37961473	      0.00000000	    256.93822020	    204.86186944	      0.00000000	      0.00000000	      0.00000000	      0.00000000	      0.00000000	      0.00000000	      0.00000000	      0.00000000	      0.00000000	      0.00000000	      0.00000000	      0.00000000
      0.12258648	     12.91624089	     10.34204196	     11.14962295	      4.73463080	      5.44615726	      6.05431701	     99.27824551	    159.63484979	    156.56274631	    304.94229244	    126.77412728	     10.31769729	      7.33456119	      0.00000000	      4.50893181	      7.73323110	      5.71998291	      3.99528674	     98.19036659	      6.68470372	     10.17414054	      7.66923957	     31.24589150	     22.74734218	      6.53556834	      4.26704056	      5.77224021	     36.15562076	      0.00000000	      0.00000000	      0.00000000	     29.22912980	      1.08030080	      0.00000000	      0.00000000	      0.00000000	      0.00000000	     28.11466924	      3.50242513	      4.97088853	     14.16396820	     19.57413660	      5.34510278	     12.91624089	     10.34204196	     11.14962295	      4.73463080	      5.44615726	      6.05431701	      0.00000000	      7.75973465	     14.51834059	     13.01919509	      2.69889458	     10.31769729	      7.33456119	      0.00000000	      4.50893181	      7.73323110	      6.40089636	      3.99528674	      2.79604420	      6.68470372	     10.17414054	      7.66923957	     31.24589150	     22.74734218	      6.53556834	      4.26704056	      5.77224021	     21.48658708	      0.00000000	      0.00000000	      0.00000000	     19.78537566	      9.70869128	     57.65752524	     56.03340336	      6.71293095	      6.04275658	     16.10628478	      8.82342792	     21.02341923	      3.51384681	     11.84879369	      3.85143621	     44.58578571	     44.58578571	     16.82905777	     16.82905777	     33.89627009	     33.89627009	     80.19175428	    123.73884958	     28.00016453	    -14.60071966	      2.07575040	     32.35971523	    -80.19175428	   -123.73884958	    -28.00016453	      4.24339961	     -2.61283198	     -0.32313487	      6.05951326	     39.38550058	      9.78435591	     -3.13445505	     -0.21230391	      2.76296607	     -6.05951326	    -39.38550058	     -9.78435591	     -0.49507716	      0.08320337	      0.00450153	   -365.22308662	   -663.33564074	    175.82977923	    -15.91669950	      6.99703590	     -6.71794054	    365.22308662	    663.33564074	   -175.82977923	     84.79812586	     -5.94155455	    153.77622417	    -82.80930705	   -132.15898686	    -43.13518921	      4.87916939	     -2.69984365	     -1.09379026	     82.80930705	    132.15898686	     43.13518921	    -20.99089945	      1.98107979	     34.22665305	     -7.30431893	      0.00000000	    263.31276055	    207.81631543	      0.00000000	      0.00000000	      0.00000000	      0.00000000	      0.00000000	      0.00000000	      0.00000000	      0.00000000	      0.00000000	      0.00000000	      0.00000000	      0.00000000
      0.12300000	     12.93171976	     10.31629301	     11.12162829	      4.72328869	      5.43367811	      6.03959027	     98.83061873	    159.50107334	    156.07024251	    304.56831915	    126.76019163	     10.29172323	      7.31715095	      0.00000000	      4.49845475	      7.71279754	      5.70720297	      3.98650507	     98.13213205	      6.66798212	     10.14860383	      7.64974061	     31.19793834	     22.69268565	      6.51991618	      4.25912428	      5.79831415	     36.08181175	      0.00000000	      0.00000000	      0.00000000	     22.78436175	      1.22366659	      0.00000000	      0.00000000	      0.00000000	      0.00000000	     28.05708962	      3.38122992	      4.80712268	      8.17744711	     19.68028526	      5.37033450	     12.93171976	     10.31629301	     11.12162829	      4.72328869	      5.43367811	      6.03959027	      0.00000000	      7.73939253	     14.50073948	     12.98731280	      2.69245874	     10.29172323	      7.31715095	      0.00000000	      4.49845475	      7.71279754	      6.38859283	      3.98650507	      2.78926338	      6.66798212	     10.14860383	      7.64974061	     31.19793834	     22.69268565	      6.51991618	      4.25912428	      5.79831415	     21.43184311	      0.00000000	      0.00000000	      0.00000000	     19.84784042	      9.73040831	     57.62301417	     55.98109132	      6.68831182	      6.01761796	     16.07971878	      8.80420651	     20.99760141	      3.50545551	     11.82537149	      3.83963878	     44.47874906	     44.47874906	     16.78576102	     16.78576102	     33.85659020	     33.85659020	     84.29735711	    118.10472857	     25.83099559	    -13.54961259	      2.15994509	     34.11571939	    -84.29735711	   -118.10472857	    -25.83099559	      4.00391440	     -2.68471926	     -0.56473073	      5.99061201	     38.88079914	      9.98223020	     -3.22949292	     -0.21024406	      2.72783306	     -5.99061201	    -38.88079914	     -9.98223020	     -0.47736285	      0.07815562	      0.01123808	   -367.78184053	   -662.22703736	    176.57090502	    -15.90313970	      7.06731191	     -6.67144977	    367.78184053	    662.22703736	   -176.57090502	     85.06234031	     -5.99084543	    154.76132502	    -81.64086143	   -129.82589729	    -42.37049773	      4.78860854	     -2.66415302	     -1.06203864	     81.64086143	    129.82589729	     42.37049773	    -20.61633769	      1.95398630	     33.73542104	     -7.32434210	      0.00000000	    268.05984896	    210.49974607	      0.00000000	      0.00000000	      0.00000000	      0.00000000	      0.00000000	      0.00000000	      0.00000000	      0.00000000	      0.00000000	      0.00000000	      0.00000000	      0.00000000
